<svg width="13" height="14" viewBox="0 0 13 14" fill="none" xmlns="http://www.w3.org/2000/svg">
<path d="M7.125 1.375C7.125 1.02982 6.84518 0.75 6.5 0.75C6.15482 0.75 5.875 1.02982 5.875 1.375V6.375H0.875C0.529822 6.375 0.25 6.65482 0.25 7C0.25 7.34518 0.529822 7.625 0.875 7.625H5.875V12.625C5.875 12.9702 6.15482 13.25 6.5 13.25C6.84518 13.25 7.125 12.9702 7.125 12.625V7.625H12.125C12.4702 7.625 12.75 7.34518 12.75 7C12.75 6.65482 12.4702 6.375 12.125 6.375H7.125V1.375Z" fill="#2F2F2F"/>
</svg>
