<svg width="22" height="23" viewBox="0 0 22 23" fill="none" xmlns="http://www.w3.org/2000/svg">
<path d="M2 3.5C2 2.95 2.45 2.5 3 2.5H5V0.5H3C1.34 0.5 0 1.84 0 3.5V5.5H2V3.5Z" fill="#F2F0FF"/>
<path d="M2 19.5V17.5H0V19.5C0 21.16 1.34 22.5 3 22.5H5V20.5H3C2.45 20.5 2 20.05 2 19.5Z" fill="#F2F0FF"/>
<path d="M19 0.5H17V2.5H19C19.55 2.5 20 2.95 20 3.5V5.5H22V3.5C22 1.84 20.66 0.5 19 0.5Z" fill="#F2F0FF"/>
<path d="M20 19.5C20 20.05 19.55 20.5 19 20.5H17V22.5H19C20.66 22.5 22 21.16 22 19.5V17.5H20V19.5Z" fill="#F2F0FF"/>
<path d="M18 14.37V8.63C18 7.91 17.62 7.25 17 6.9L12 4.02C11.69 3.84 11.35 3.75 11 3.75C10.65 3.75 10.31 3.84 10 4.02L5 6.89C4.38 7.25 4 7.91 4 8.63V14.37C4 15.09 4.38 15.75 5 16.1L10 18.98C10.31 19.16 10.65 19.25 11 19.25C11.35 19.25 11.69 19.16 12 18.98L17 16.1C17.62 15.75 18 15.09 18 14.37ZM10 16.67L6 14.37V9.74L10 12.07V16.67ZM11 10.34L7.04 8.03L11 5.75L14.96 8.03L11 10.34ZM16 14.37L12 16.67V12.07L16 9.74V14.37Z" fill="#F2F0FF"/>
</svg>
