<svg width="42" height="43" viewBox="0 0 42 43" fill="none" xmlns="http://www.w3.org/2000/svg">
<path d="M11 14H21M11 21H27M16.3675 33H29.4C32.7603 33 34.4405 33 35.7239 32.346C36.8529 31.7708 37.7708 30.8529 38.346 29.7239C39 28.4405 39 26.7603 39 23.4V12.6C39 9.23968 39 7.55953 38.346 6.27606C37.7708 5.14708 36.8529 4.2292 35.7239 3.65396C34.4405 3 32.7603 3 29.4 3H12.6C9.23969 3 7.55953 3 6.27606 3.65396C5.14708 4.2292 4.2292 5.14708 3.65396 6.27606C3 7.55953 3 9.23969 3 12.6V37.671C3 38.7367 3 39.2696 3.21846 39.5432C3.40845 39.7812 3.69654 39.9197 4.00108 39.9194C4.35125 39.919 4.76734 39.5861 5.59951 38.9204L10.3704 35.1037C11.345 34.324 11.8323 33.9341 12.375 33.6569C12.8564 33.411 13.3689 33.2312 13.8984 33.1225C14.4953 33 15.1194 33 16.3675 33Z" stroke="white" stroke-width="5" stroke-linecap="round" stroke-linejoin="round"/>
</svg>
