<svg width="44" height="11" viewBox="0 0 44 11" fill="none" xmlns="http://www.w3.org/2000/svg">
<path d="M3.35654 4.16639L1.57243 6.86598H0L1.78412 4.16639L0 1.4668H1.57243L3.35654 4.16639Z" fill="#00F1A9"/>
<path d="M18.0417 4.83407V8.13388H19.3608V4.83407C19.3608 3.70463 20.2825 2.78541 21.4149 2.78541V1.46973C19.554 1.46973 18.0408 2.97903 18.0408 4.83499L18.0417 4.83407Z" fill="white"/>
<path d="M24.8512 1.46875C22.9903 1.46875 21.4771 2.97805 21.4771 4.83402C21.4771 6.68999 22.9903 8.19928 24.8512 8.19928C26.712 8.19928 28.2253 6.68999 28.2253 4.83402C28.2253 2.97805 26.712 1.46875 24.8512 1.46875ZM24.8512 6.88268C23.7188 6.88268 22.7971 5.96346 22.7971 4.83402C22.7971 3.70458 23.7188 2.78535 24.8512 2.78535C25.9836 2.78535 26.9052 3.70458 26.9052 4.83402C26.9052 5.96346 25.9836 6.88268 24.8512 6.88268Z" fill="white"/>
<path d="M32.2452 1.4687C30.4269 1.4687 28.9441 2.91161 28.8776 4.70857H28.8711V10.3548H30.1902V7.49667C30.7597 7.93462 31.4715 8.19831 32.2443 8.19831C34.1051 8.19831 35.6184 6.68901 35.6184 4.83304C35.6184 2.97707 34.1051 1.46777 32.2443 1.46777L32.2452 1.4687ZM32.2452 6.88263C31.1128 6.88263 30.1912 5.9634 30.1912 4.83396C30.1912 3.70452 31.1128 2.7853 32.2452 2.7853C33.3776 2.7853 34.2992 3.70452 34.2992 4.83396C34.2992 5.9634 33.3776 6.88263 32.2452 6.88263Z" fill="white"/>
<path d="M41.6938 1.5376V4.83372C41.6938 5.96315 40.7722 6.88238 39.6398 6.88238C38.5074 6.88238 37.5857 5.96315 37.5857 4.83372V1.5376H36.2666V4.83372C36.2666 6.68968 37.7799 8.19898 39.6407 8.19898C40.3821 8.19898 41.0671 7.9565 41.6245 7.5499C41.3915 8.42579 40.5919 9.07487 39.6407 9.07487V10.3906C41.5015 10.3906 43.0148 8.88125 43.0148 7.02529V1.5376H41.6957H41.6938Z" fill="white"/>
<path d="M15.7151 0H14.396V1.46873V5.09031V8.13381H15.7151V5.09031V2.78441H17.8912V1.46873H15.7151V0Z" fill="white"/>
<path d="M10.1868 1.46875C8.32601 1.46875 6.81274 2.97805 6.81274 4.83402V8.13382H8.13188V4.83402C8.13188 3.70458 9.05352 2.78535 10.1859 2.78535C11.3183 2.78535 12.24 3.70458 12.24 4.83402V8.13382H13.5591V4.83402C13.5591 2.97805 12.0458 1.46875 10.185 1.46875H10.1868Z" fill="white"/>
<path d="M2.72233 6.86523H2.5393H2.35257H1.57514L0.730225 8.14496L0.748713 8.15786H1.49749H1.68422H1.86725H2.29341H6.04374V6.86523H3.14756H2.72233Z" fill="white"/>
<path d="M2.10667 0.174316H1.92364H0.748713L0.730225 0.186303L1.57514 1.46603H2.7778H2.96176H3.14756H6.04374V0.174316H2.29341H2.10667Z" fill="white"/>
</svg>
