<svg width="22" height="22" viewBox="0 0 22 22" fill="none" xmlns="http://www.w3.org/2000/svg">
<path d="M2.93375 8.5H16.9337V10.5H18.9337V4.5C18.9337 3.4 18.0337 2.5 16.9337 2.5H15.9337V0.5H13.9337V2.5H5.93375V0.5H3.93375V2.5H2.93375C1.82375 2.5 0.943746 3.4 0.943746 4.5L0.933746 18.5C0.933746 19.6 1.82375 20.5 2.93375 20.5H9.93375V18.5H2.93375V8.5ZM2.93375 4.5H16.9337V6.5H2.93375V4.5ZM20.7737 14.78L20.0637 15.49L17.9437 13.37L18.6537 12.66C19.0437 12.27 19.6737 12.27 20.0637 12.66L20.7737 13.37C21.1637 13.76 21.1637 14.39 20.7737 14.78ZM17.2337 14.08L19.3537 16.2L14.0537 21.5H11.9337V19.38L17.2337 14.08Z" fill="#F2F0FF"/>
</svg>
